<?xml version="1.0"?>
<!DOCTYPE svg PUBLIC "-//W3C//DTD SVG 1.1//EN" "http://www.w3.org/Graphics/SVG/1.1/DTD/svg11.dtd">
<svg width="369.36773176461224mm" height="157.24250454440417mm" viewBox="0 0 369.36773176461224 157.24250454440417" xmlns="http://www.w3.org/2000/svg" version="1.1">
<g id="Body005" transform="translate(191.064913,78.621252) scale(1,-1)">
<path id="Body005_f0000"  d="M -134.5 -72.0 A 3 3 0 0 0 -137.5 -75L -137.5 -75.0 A 3 3 0 0 1 -134.5 -72L -134.5 -72.0 Z " stroke="#191919" stroke-width="0.7 px" style="stroke-width:0.7;stroke-miterlimit:4;stroke-dasharray:none;stroke-linecap:square;fill:#000000;fill-opacity:0.09999999999999998;fill-rule: evenodd"/>
<path id="Body005_f0001"  d="M -92.4999628696345 -30.000000000008214 L -92.4999628696345 -30.000000000008214 A 42 42 0 0 1 -134.5 -72L -134.5 -72.0 A 42 42 0 0 0 -92.5 -30Z " stroke="#191919" stroke-width="0.7 px" style="stroke-width:0.7;stroke-miterlimit:4;stroke-dasharray:none;stroke-linecap:square;fill:#000000;fill-opacity:0.09999999999999998;fill-rule: evenodd"/>
<path id="Body005_f0002"  d="M 92.49999999999999 -30.000000000000004 L -92.4999628696345 -30.000000000000004 L -92.4999628696345 -30.000000000008214 L 92.49999999999999 -30.0 L 92.49999999999999 -30.0 Z " stroke="#191919" stroke-width="0.7 px" style="stroke-width:0.7;stroke-miterlimit:4;stroke-dasharray:none;stroke-linecap:square;fill:#000000;fill-opacity:0.09999999999999998;fill-rule: evenodd"/>
<path id="Body005_f0003"  d="M 134.5 -72.0 L 134.5 -72.0 A 42 42 0 0 1 92.5 -30L 92.49999999999999 -30.0 A 42 42 0 0 0 134.5 -72Z " stroke="#191919" stroke-width="0.7 px" style="stroke-width:0.7;stroke-miterlimit:4;stroke-dasharray:none;stroke-linecap:square;fill:#000000;fill-opacity:0.09999999999999998;fill-rule: evenodd"/>
<path id="Body005_f0004"  d="M 137.5 -75.0 A 3 3 0 0 0 134.5 -72L 134.5 -72.0 A 3 3 0 0 1 137.5 -75L 137.5 -75.0 Z " stroke="#191919" stroke-width="0.7 px" style="stroke-width:0.7;stroke-miterlimit:4;stroke-dasharray:none;stroke-linecap:square;fill:#000000;fill-opacity:0.09999999999999998;fill-rule: evenodd"/>
<path id="Body005_f0005"  d="M 169.60293367557875 -75.0 L 137.5 -75.0 L 137.5 -75.0 L 169.60293367557875 -75.0 L 169.60293367557875 -75.0 Z " stroke="#191919" stroke-width="0.7 px" style="stroke-width:0.7;stroke-miterlimit:4;stroke-dasharray:none;stroke-linecap:square;fill:#000000;fill-opacity:0.09999999999999998;fill-rule: evenodd"/>
<path id="Body005_f0006"  d="M 172.60110615663604 -72.10469849010751 A 3 3 0 0 0 169.603 -75L 169.60293367557875 -75.0 A 3 3 0 0 1 172.601 -72.1047L 172.60110615663604 -72.10469849010751 Z " stroke="#191919" stroke-width="0.7 px" style="stroke-width:0.7;stroke-miterlimit:4;stroke-dasharray:none;stroke-linecap:square;fill:#000000;fill-opacity:0.09999999999999998;fill-rule: evenodd"/>
<path id="Body005_f0007"  d="M 174.2460384745874 -24.999999999999996 L 172.60110615663604 -72.10469849010751 L 172.60110615663604 -72.10469849010751 L 174.2460384745874 -25.0 L 174.2460384745874 -25.0 Z " stroke="#191919" stroke-width="0.7 px" style="stroke-width:0.7;stroke-miterlimit:4;stroke-dasharray:none;stroke-linecap:square;fill:#000000;fill-opacity:0.09999999999999998;fill-rule: evenodd"/>
<path id="Body005_f0008"  d="M -137.5 -75.0 L -137.5 -75.0 L -169.50182751894272 -75.0 L -169.50182751894272 -75.0 L -137.5 -75.0 Z " stroke="#191919" stroke-width="0.7 px" style="stroke-width:0.7;stroke-miterlimit:4;stroke-dasharray:none;stroke-linecap:square;fill:#000000;fill-opacity:0.09999999999999998;fill-rule: evenodd"/>
<path id="Body005_f0009"  d="M 172.60110615663604 72.1046984901075 L 174.2460384745874 25.0 L 174.2460384745874 25.0 L 172.60110615663604 72.1046984901075 L 172.60110615663604 72.1046984901075 Z " stroke="#191919" stroke-width="0.7 px" style="stroke-width:0.7;stroke-miterlimit:4;stroke-dasharray:none;stroke-linecap:square;fill:#000000;fill-opacity:0.09999999999999998;fill-rule: evenodd"/>
<path id="Body005_f0010"  d="M 169.60293367557875 75.0 A 3 3 0 0 0 172.601 72.1047L 172.60110615663604 72.1046984901075 A 3 3 0 0 1 169.603 75L 169.60293367557875 75.0 Z " stroke="#191919" stroke-width="0.7 px" style="stroke-width:0.7;stroke-miterlimit:4;stroke-dasharray:none;stroke-linecap:square;fill:#000000;fill-opacity:0.09999999999999998;fill-rule: evenodd"/>
<path id="Body005_f0011"  d="M 137.494159460176 75.0 L 169.60293367557875 75.0 L 169.60293367557875 75.0 L 137.494159460176 75.0 L 137.494159460176 75.0 Z " stroke="#191919" stroke-width="0.7 px" style="stroke-width:0.7;stroke-miterlimit:4;stroke-dasharray:none;stroke-linecap:square;fill:#000000;fill-opacity:0.09999999999999998;fill-rule: evenodd"/>
<path id="Body005_f0012"  d="M 134.5 72.18710726078528 A 3 3 0 0 0 137.494 75L 137.494159460176 75.0 A 3 3 0 0 1 134.5 72.1871L 134.5 72.1871072607853 Z " stroke="#191919" stroke-width="0.7 px" style="stroke-width:0.7;stroke-miterlimit:4;stroke-dasharray:none;stroke-linecap:square;fill:#000000;fill-opacity:0.09999999999999998;fill-rule: evenodd"/>
<path id="Body005_f0013"  d="M 92.49999999999999 29.999999999999996 L 92.49999999999999 29.999999999999996 A 45.1008 45.1008 0 0 1 134.5 72.1871L 134.5 72.1871072607853 A 45.1008 45.1008 0 0 0 92.5 30Z " stroke="#191919" stroke-width="0.7 px" style="stroke-width:0.7;stroke-miterlimit:4;stroke-dasharray:none;stroke-linecap:square;fill:#000000;fill-opacity:0.09999999999999998;fill-rule: evenodd"/>
<path id="Body005_f0014"  d="M -92.4999628696345 30.0 L 92.49999999999999 30.0 L 92.49999999999999 29.999999999999996 L -92.4999628696345 30.000000000008214 L -92.4999628696345 30.000000000008214 Z " stroke="#191919" stroke-width="0.7 px" style="stroke-width:0.7;stroke-miterlimit:4;stroke-dasharray:none;stroke-linecap:square;fill:#000000;fill-opacity:0.09999999999999998;fill-rule: evenodd"/>
<path id="Body005_f0015"  d="M -134.5 72.00000000018974 L -134.5 72.00000000018974 A 42 42 0 0 1 -92.5 30L -92.4999628696345 30.000000000008214 A 42 42 0 0 0 -134.5 72Z " stroke="#191919" stroke-width="0.7 px" style="stroke-width:0.7;stroke-miterlimit:4;stroke-dasharray:none;stroke-linecap:square;fill:#000000;fill-opacity:0.09999999999999998;fill-rule: evenodd"/>
<path id="Body005_f0016"  d="M -137.49999999981026 75.0 A 3 3 0 0 0 -134.5 72L -134.5 72.00000000018974 A 3 3 0 0 1 -137.5 75L -137.49999999981026 75.0 Z " stroke="#191919" stroke-width="0.7 px" style="stroke-width:0.7;stroke-miterlimit:4;stroke-dasharray:none;stroke-linecap:square;fill:#000000;fill-opacity:0.09999999999999998;fill-rule: evenodd"/>
<path id="Body005_f0017"  d="M -169.50182751913235 75.0 L -169.50182751913235 75.0 L -137.49999999981026 75.0 L -137.49999999981026 75.0 L -169.50182751913235 75.0 Z " stroke="#191919" stroke-width="0.7 px" style="stroke-width:0.7;stroke-miterlimit:4;stroke-dasharray:none;stroke-linecap:square;fill:#000000;fill-opacity:0.09999999999999998;fill-rule: evenodd"/>
<path id="Body005_f0018"  d="M -172.5 72.10469849029063 A 3 3 0 0 0 -169.502 75L -169.50182751913235 75.0 A 3 3 0 0 1 -172.5 72.1047L -172.5 72.10469849029063 Z " stroke="#191919" stroke-width="0.7 px" style="stroke-width:0.7;stroke-miterlimit:4;stroke-dasharray:none;stroke-linecap:square;fill:#000000;fill-opacity:0.09999999999999998;fill-rule: evenodd"/>
<path id="Body005_f0019"  d="M -173.90548003541247 31.85701621213728 L -173.90548003541247 31.85701621213728 L -172.5 72.10469849029063 L -172.5 72.10469849029063 L -173.90548003541247 31.85701621213728 Z " stroke="#191919" stroke-width="0.7 px" style="stroke-width:0.7;stroke-miterlimit:4;stroke-dasharray:none;stroke-linecap:square;fill:#000000;fill-opacity:0.09999999999999998;fill-rule: evenodd"/>
<path id="Body005_f0020"  d="M -180.18818719517552 28.53627730572044 L -180.18818719517552 28.53627730572044 A 4.09702 4.09702 0 0 1 -173.905 31.857L -173.90548003541247 31.85701621213728 A 4.09702 4.09702 0 0 0 -180.188 28.5363Z " stroke="#191919" stroke-width="0.7 px" style="stroke-width:0.7;stroke-miterlimit:4;stroke-dasharray:none;stroke-linecap:square;fill:#000000;fill-opacity:0.09999999999999998;fill-rule: evenodd"/>
<path id="Body005_f0021"  d="M -181.79046601875385 29.0 A 3 3 0 0 0 -180.188 28.5363L -180.18818719517552 28.53627730572044 A 3 3 0 0 1 -181.79 29L -181.79046601875385 29.0 Z " stroke="#191919" stroke-width="0.7 px" style="stroke-width:0.7;stroke-miterlimit:4;stroke-dasharray:none;stroke-linecap:square;fill:#000000;fill-opacity:0.09999999999999998;fill-rule: evenodd"/>
<path id="Body005_f0022"  d="M -182.79046601875385 29.0 L -182.79046601875385 29.0 L -181.79046601875385 29.0 L -181.79046601875385 29.0 L -182.79046601875385 29.0 Z " stroke="#191919" stroke-width="0.7 px" style="stroke-width:0.7;stroke-miterlimit:4;stroke-dasharray:none;stroke-linecap:square;fill:#000000;fill-opacity:0.09999999999999998;fill-rule: evenodd"/>
<path id="Body005_f0023"  d="M -185.76422327850864 26.395939086294415 A 3 3 0 0 0 -182.79 29L -182.79046601875385 29.0 A 3 3 0 0 1 -185.764 26.3959L -185.76422327850867 26.395939086294405 Z " stroke="#191919" stroke-width="0.7 px" style="stroke-width:0.7;stroke-miterlimit:4;stroke-dasharray:none;stroke-linecap:square;fill:#000000;fill-opacity:0.09999999999999998;fill-rule: evenodd"/>
<path id="Body005_f0024"  d="M -185.76422327850867 -26.39593908629435 A 200 200 0 0 0 -185.764 26.3959L -185.76422327850867 26.395939086294405 A 200 200 0 0 1 -185.764 -26.3959L -185.76422327850864 -26.395939086294405 Z " stroke="#191919" stroke-width="0.7 px" style="stroke-width:0.7;stroke-miterlimit:4;stroke-dasharray:none;stroke-linecap:square;fill:#000000;fill-opacity:0.09999999999999998;fill-rule: evenodd"/>
<path id="Body005_f0025"  d="M -182.79046601875385 -29.000000000000004 A 3 3 0 0 0 -185.764 -26.3959L -185.76422327850864 -26.395939086294405 A 3 3 0 0 1 -182.79 -29L -182.79046601875385 -29.000000000000004 Z " stroke="#191919" stroke-width="0.7 px" style="stroke-width:0.7;stroke-miterlimit:4;stroke-dasharray:none;stroke-linecap:square;fill:#000000;fill-opacity:0.09999999999999998;fill-rule: evenodd"/>
<path id="Body005_f0026"  d="M -181.79046601875385 -29.000000000000004 L -181.79046601875385 -29.000000000000004 L -182.79046601875385 -29.000000000000004 L -182.79046601875385 -29.000000000000004 L -181.79046601875385 -29.000000000000004 Z " stroke="#191919" stroke-width="0.7 px" style="stroke-width:0.7;stroke-miterlimit:4;stroke-dasharray:none;stroke-linecap:square;fill:#000000;fill-opacity:0.09999999999999998;fill-rule: evenodd"/>
<path id="Body005_f0027"  d="M -180.18818719517554 -28.536277305720443 A 3 3 0 0 0 -181.79 -29L -181.79046601875385 -29.000000000000004 A 3 3 0 0 1 -180.188 -28.5363L -180.18818719517554 -28.536277305720443 Z " stroke="#191919" stroke-width="0.7 px" style="stroke-width:0.7;stroke-miterlimit:4;stroke-dasharray:none;stroke-linecap:square;fill:#000000;fill-opacity:0.09999999999999998;fill-rule: evenodd"/>
<path id="Body005_f0028"  d="M -173.9054800354125 -31.857016212136628 L -173.9054800354125 -31.857016212136628 A 4.09702 4.09702 0 0 1 -180.188 -28.5363L -180.18818719517554 -28.536277305720443 A 4.09702 4.09702 0 0 0 -173.905 -31.857Z " stroke="#191919" stroke-width="0.7 px" style="stroke-width:0.7;stroke-miterlimit:4;stroke-dasharray:none;stroke-linecap:square;fill:#000000;fill-opacity:0.09999999999999998;fill-rule: evenodd"/>
<path id="Body005_f0029"  d="M -172.5 -72.10469849010798 L -172.5 -72.10469849010798 L -173.9054800354125 -31.857016212136628 L -173.9054800354125 -31.857016212136628 L -172.5 -72.10469849010798 Z " stroke="#191919" stroke-width="0.7 px" style="stroke-width:0.7;stroke-miterlimit:4;stroke-dasharray:none;stroke-linecap:square;fill:#000000;fill-opacity:0.09999999999999998;fill-rule: evenodd"/>
<path id="Body005_f0030"  d="M -169.50182751894272 -75.0 A 3 3 0 0 0 -172.5 -72.1047L -172.5 -72.10469849010798 A 3 3 0 0 1 -169.502 -75L -169.50182751894272 -75.0 Z " stroke="#191919" stroke-width="0.7 px" style="stroke-width:0.7;stroke-miterlimit:4;stroke-dasharray:none;stroke-linecap:square;fill:#000000;fill-opacity:0.09999999999999998;fill-rule: evenodd"/>
<circle cx="166.0" cy="62.5" r="1.6" stroke="#191919" stroke-width="0.7 px" style="stroke-width:0.7;stroke-miterlimit:4;stroke-dasharray:none;stroke-linecap:square;fill:#000000"/>
<circle cx="166.0" cy="62.5" r="1.6" stroke="#191919" stroke-width="0.7 px" style="stroke-width:0.7;stroke-miterlimit:4;stroke-dasharray:none;stroke-linecap:square;fill:#000000"/>
<circle cx="141.0" cy="62.5" r="1.6" stroke="#191919" stroke-width="0.7 px" style="stroke-width:0.7;stroke-miterlimit:4;stroke-dasharray:none;stroke-linecap:square;fill:#000000"/>
<circle cx="166.0" cy="42.5" r="1.6" stroke="#191919" stroke-width="0.7 px" style="stroke-width:0.7;stroke-miterlimit:4;stroke-dasharray:none;stroke-linecap:square;fill:#000000"/>
<circle cx="141.0" cy="42.5" r="1.6" stroke="#191919" stroke-width="0.7 px" style="stroke-width:0.7;stroke-miterlimit:4;stroke-dasharray:none;stroke-linecap:square;fill:#000000"/>
<circle cx="166.0" cy="-42.5" r="1.6" stroke="#191919" stroke-width="0.7 px" style="stroke-width:0.7;stroke-miterlimit:4;stroke-dasharray:none;stroke-linecap:square;fill:#000000"/>
<circle cx="166.0" cy="-62.5" r="1.6" stroke="#191919" stroke-width="0.7 px" style="stroke-width:0.7;stroke-miterlimit:4;stroke-dasharray:none;stroke-linecap:square;fill:#000000"/>
<circle cx="141.0" cy="-62.5" r="1.6" stroke="#191919" stroke-width="0.7 px" style="stroke-width:0.7;stroke-miterlimit:4;stroke-dasharray:none;stroke-linecap:square;fill:#000000"/>
<circle cx="141.0" cy="-42.5" r="1.6" stroke="#191919" stroke-width="0.7 px" style="stroke-width:0.7;stroke-miterlimit:4;stroke-dasharray:none;stroke-linecap:square;fill:#000000"/>
<circle cx="-166.0" cy="-62.5" r="1.6" stroke="#191919" stroke-width="0.7 px" style="stroke-width:0.7;stroke-miterlimit:4;stroke-dasharray:none;stroke-linecap:square;fill:#000000"/>
<circle cx="-141.0" cy="-62.5" r="1.6" stroke="#191919" stroke-width="0.7 px" style="stroke-width:0.7;stroke-miterlimit:4;stroke-dasharray:none;stroke-linecap:square;fill:#000000"/>
<circle cx="-141.0" cy="-42.5" r="1.6" stroke="#191919" stroke-width="0.7 px" style="stroke-width:0.7;stroke-miterlimit:4;stroke-dasharray:none;stroke-linecap:square;fill:#000000"/>
<circle cx="-166.0" cy="-42.5" r="1.6" stroke="#191919" stroke-width="0.7 px" style="stroke-width:0.7;stroke-miterlimit:4;stroke-dasharray:none;stroke-linecap:square;fill:#000000"/>
<circle cx="-141.0" cy="42.5" r="1.6" stroke="#191919" stroke-width="0.7 px" style="stroke-width:0.7;stroke-miterlimit:4;stroke-dasharray:none;stroke-linecap:square;fill:#000000"/>
<circle cx="-166.0" cy="42.5" r="1.6" stroke="#191919" stroke-width="0.7 px" style="stroke-width:0.7;stroke-miterlimit:4;stroke-dasharray:none;stroke-linecap:square;fill:#000000"/>
<circle cx="-141.0" cy="62.5" r="1.6" stroke="#191919" stroke-width="0.7 px" style="stroke-width:0.7;stroke-miterlimit:4;stroke-dasharray:none;stroke-linecap:square;fill:#000000"/>
<circle cx="-166.0" cy="62.5" r="1.6" stroke="#191919" stroke-width="0.7 px" style="stroke-width:0.7;stroke-miterlimit:4;stroke-dasharray:none;stroke-linecap:square;fill:#000000"/>
<circle cx="166.0" cy="62.5" r="1.6" stroke="#191919" stroke-width="0.7 px" style="stroke-width:0.7;stroke-miterlimit:4;stroke-dasharray:none;stroke-linecap:square;fill:#000000"/>
<path id="Body005_f0049"  d="M 174.2460384745874 25.00000000000031 A 716.343 716.343 0 0 0 174.675 3.30739A 716.343 716.343 0 0 0 174.675 -3.30739A 716.343 716.343 0 0 0 174.246 -25L 174.2460384745874 -25.0 A 716.343 716.343 0 0 1 174.675 -3.30739A 716.343 716.343 0 0 1 174.675 3.30739A 716.343 716.343 0 0 1 174.246 25L 174.2460384745874 25.0 Z " stroke="#191919" stroke-width="0.7 px" style="stroke-width:0.7;stroke-miterlimit:4;stroke-dasharray:none;stroke-linecap:square;fill:#000000;fill-opacity:0.09999999999999998;fill-rule: evenodd"/>
<title>b'Plexiglass'</title>
</g>
</svg>